<?xml version="1.0" encoding="UTF-8" standalone="no"?><!DOCTYPE svg PUBLIC "-//W3C//DTD SVG 1.1//EN" "http://www.w3.org/Graphics/SVG/1.1/DTD/svg11.dtd"><svg width="100%" height="100%" viewBox="0 0 167 167" version="1.1" xmlns="http://www.w3.org/2000/svg" xmlns:xlink="http://www.w3.org/1999/xlink" xml:space="preserve" style="fill-rule:evenodd;clip-rule:evenodd;stroke-linejoin:round;stroke-miterlimit:1.41421;"><path d="M112.402,75.098c-4.395,2.348 -9.855,0.689 -12.203,-3.705c-2.348,-4.395 -0.69,-9.856 3.705,-12.203c4.394,-2.348 9.855,-0.69 12.203,3.705c2.348,4.394 0.69,9.855 -3.705,12.203m8.639,-25.788c-6.608,0.179 -16.791,2.88 -22.621,5.994l-31.817,16.997c-2.914,1.557 -4.027,5.221 -2.469,8.135l8.498,15.909c1.557,2.916 5.221,4.027 8.135,2.47l31.819,-16.998c5.828,-3.115 13.736,-10.077 17.56,-15.482l12.479,-17.616l-21.584,0.591Z" style="fill:#05acee;fill-rule:nonzero;"/><path d="M61.668,72.305l26.525,-14.161c-3.125,-5.833 -10.441,-8.054 -16.271,-4.94l-15.918,8.496c-2.916,1.556 -4.029,5.221 -2.471,8.135c1.557,2.914 5.221,4.027 8.135,2.47" style="fill:#05acee;fill-rule:nonzero;"/><path d="M77.51,103.428c-2.916,1.557 -4.025,5.221 -2.469,8.135c1.557,2.914 5.221,4.027 8.135,2.47l15.908,-8.5c5.83,-3.113 8.055,-10.439 4.94,-16.271l-26.514,14.166Z" style="fill:#05acee;fill-rule:nonzero;"/><path d="M56.168,84.682c-1.453,0.787 -2.008,2.617 -1.234,4.068l5.675,10.61c0.772,1.461 2.606,2.017 4.069,1.234l2.652,-1.416l-8.51,-15.913l-2.652,1.417Z" style="fill:#05acee;fill-rule:nonzero;"/><path d="M22.625,112.827c13.252,-2.26 34.006,-8.527 30,-16.027c-4.006,-7.5 -20.754,6.267 -30,16.027" style="fill:#05acee;fill-rule:nonzero;"/><path d="M26.283,85.313c6.66,4.721 18.26,10.939 19.758,6c1.5,-4.941 -11.598,-6.219 -19.758,-6" style="fill:#05acee;fill-rule:nonzero;"/><path d="M49.234,123.616c4.721,-6.66 10.939,-18.26 6,-19.76c-4.941,-1.5 -6.219,11.6 -6,19.76" style="fill:#05acee;fill-rule:nonzero;"/><path d="M83.876,8.686c-41.422,0 -75,33.58 -75,75c0,41.422 33.578,75 75,75c41.422,0 75,-33.578 75,-75c0,-41.42 -33.578,-75 -75,-75m83.124,74.814c0,39.326 -1.209,74.201 -2.686,77.5c-1.478,3.3 -41.489,6 -80.814,6c-39.325,0 -74.2,-1.209 -77.5,-2.685c-3.3,-1.478 -6,-41.489 -6,-80.815c0,-39.325 1.209,-74.2 2.687,-77.5c1.477,-3.299 41.488,-6 80.813,-6c39.325,0 74.2,1.209 77.5,2.687c3.3,1.478 6,41.488 6,80.813" style="fill:#05acee;fill-rule:nonzero;"/></svg>